<svg width="1440" height="900" viewBox="0 0 1440 900" fill="none" xmlns="http://www.w3.org/2000/svg">
  <g opacity="0.3">
    <path d="M1440 0H0V900H1440V0Z" fill="white"/>
    <path d="M1440 0H0V900H1440V0Z" fill="url(#paint0_linear)"/>
    <path d="M1440 0H0V900H1440V0Z" fill="url(#paint1_radial)"/>
    <g opacity="0.4">
      <path d="M1394.26 -88.5195L1394.26 988.52" stroke="#007BFF" stroke-width="1.5"/>
      <path d="M1326.26 -88.5195L1326.26 988.52" stroke="#007BFF" stroke-width="1.5"/>
      <path d="M1258.26 -88.5195L1258.26 988.52" stroke="#007BFF" stroke-width="1.5"/>
      <path d="M1190.26 -88.5195L1190.26 988.52" stroke="#007BFF" stroke-width="1.5"/>
      <path d="M1122.26 -88.5195L1122.26 988.52" stroke="#007BFF" stroke-width="1.5"/>
      <path d="M1054.26 -88.5195L1054.26 988.52" stroke="#007BFF" stroke-width="1.5"/>
      <path d="M986.26 -88.5195L986.26 988.52" stroke="#007BFF" stroke-width="1.5"/>
      <path d="M918.26 -88.5195L918.26 988.52" stroke="#007BFF" stroke-width="1.5"/>
      <path d="M850.26 -88.5195L850.26 988.52" stroke="#007BFF" stroke-width="1.5"/>
      <path d="M782.26 -88.5195L782.26 988.52" stroke="#007BFF" stroke-width="1.5"/>
      <path d="M714.26 -88.5195L714.26 988.52" stroke="#007BFF" stroke-width="1.5"/>
      <path d="M646.26 -88.5195L646.26 988.52" stroke="#007BFF" stroke-width="1.5"/>
      <path d="M578.26 -88.5195L578.26 988.52" stroke="#007BFF" stroke-width="1.5"/>
      <path d="M510.26 -88.5195L510.26 988.52" stroke="#007BFF" stroke-width="1.5"/>
      <path d="M442.26 -88.5195L442.26 988.52" stroke="#007BFF" stroke-width="1.5"/>
      <path d="M374.26 -88.5195L374.26 988.52" stroke="#007BFF" stroke-width="1.5"/>
      <path d="M306.26 -88.5195L306.26 988.52" stroke="#007BFF" stroke-width="1.5"/>
      <path d="M238.26 -88.5195L238.26 988.52" stroke="#007BFF" stroke-width="1.5"/>
      <path d="M170.26 -88.5195L170.26 988.52" stroke="#007BFF" stroke-width="1.5"/>
      <path d="M102.26 -88.5195L102.26 988.52" stroke="#007BFF" stroke-width="1.5"/>
      <path d="M34.26 -88.5195L34.26 988.52" stroke="#007BFF" stroke-width="1.5"/>
      <path d="M1528 806.74L-49.0391 806.74" stroke="#007BFF" stroke-width="1.5"/>
      <path d="M1528 738.74L-49.0391 738.74" stroke="#007BFF" stroke-width="1.5"/>
      <path d="M1528 670.74L-49.0391 670.74" stroke="#007BFF" stroke-width="1.5"/>
      <path d="M1528 602.74L-49.0391 602.74" stroke="#007BFF" stroke-width="1.5"/>
      <path d="M1528 534.74L-49.0391 534.74" stroke="#007BFF" stroke-width="1.5"/>
      <path d="M1528 466.74L-49.0391 466.74" stroke="#007BFF" stroke-width="1.5"/>
      <path d="M1528 398.74L-49.0391 398.74" stroke="#007BFF" stroke-width="1.5"/>
      <path d="M1528 330.74L-49.0391 330.74" stroke="#007BFF" stroke-width="1.5"/>
      <path d="M1528 262.74L-49.0391 262.74" stroke="#007BFF" stroke-width="1.5"/>
      <path d="M1528 194.74L-49.0391 194.74" stroke="#007BFF" stroke-width="1.5"/>
      <path d="M1528 126.74L-49.0391 126.74" stroke="#007BFF" stroke-width="1.5"/>
      <path d="M1528 58.74L-49.0391 58.74" stroke="#007BFF" stroke-width="1.5"/>
    </g>
    <g opacity="0.3">
      <path d="M1394.26 -88.5195L1394.26 988.52" stroke="#007BFF" stroke-width="1.5"/>
      <path d="M1326.26 -88.5195L1326.26 988.52" stroke="#007BFF" stroke-width="1.5"/>
      <path d="M1258.26 -88.5195L1258.26 988.52" stroke="#007BFF" stroke-width="1.5"/>
      <path d="M1190.26 -88.5195L1190.26 988.52" stroke="#007BFF" stroke-width="1.5"/>
      <path d="M1122.26 -88.5195L1122.26 988.52" stroke="#007BFF" stroke-width="1.5"/>
      <path d="M1054.26 -88.5195L1054.26 988.52" stroke="#007BFF" stroke-width="1.5"/>
      <path d="M986.26 -88.5195L986.26 988.52" stroke="#007BFF" stroke-width="1.5"/>
      <path d="M918.26 -88.5195L918.26 988.52" stroke="#007BFF" stroke-width="1.5"/>
      <path d="M850.26 -88.5195L850.26 988.52" stroke="#007BFF" stroke-width="1.5"/>
      <path d="M782.26 -88.5195L782.26 988.52" stroke="#007BFF" stroke-width="1.5"/>
      <path d="M714.26 -88.5195L714.26 988.52" stroke="#007BFF" stroke-width="1.5"/>
      <path d="M646.26 -88.5195L646.26 988.52" stroke="#007BFF" stroke-width="1.5"/>
      <path d="M578.26 -88.5195L578.26 988.52" stroke="#007BFF" stroke-width="1.5"/>
      <path d="M510.26 -88.5195L510.26 988.52" stroke="#007BFF" stroke-width="1.5"/>
      <path d="M442.26 -88.5195L442.26 988.52" stroke="#007BFF" stroke-width="1.5"/>
      <path d="M374.26 -88.5195L374.26 988.52" stroke="#007BFF" stroke-width="1.5"/>
      <path d="M306.26 -88.5195L306.26 988.52" stroke="#007BFF" stroke-width="1.5"/>
      <path d="M238.26 -88.5195L238.26 988.52" stroke="#007BFF" stroke-width="1.5"/>
      <path d="M170.26 -88.5195L170.26 988.52" stroke="#007BFF" stroke-width="1.5"/>
      <path d="M102.26 -88.5195L102.26 988.52" stroke="#007BFF" stroke-width="1.5"/>
      <path d="M34.26 -88.5195L34.26 988.52" stroke="#007BFF" stroke-width="1.5"/>
      <path d="M1528 806.74L-49.0391 806.74" stroke="#007BFF" stroke-width="1.5"/>
      <path d="M1528 738.74L-49.0391 738.74" stroke="#007BFF" stroke-width="1.5"/>
      <path d="M1528 670.74L-49.0391 670.74" stroke="#007BFF" stroke-width="1.5"/>
      <path d="M1528 602.74L-49.0391 602.74" stroke="#007BFF" stroke-width="1.5"/>
      <path d="M1528 534.74L-49.0391 534.74" stroke="#007BFF" stroke-width="1.5"/>
      <path d="M1528 466.74L-49.0391 466.74" stroke="#007BFF" stroke-width="1.5"/>
      <path d="M1528 398.74L-49.0391 398.74" stroke="#007BFF" stroke-width="1.5"/>
      <path d="M1528 330.74L-49.0391 330.74" stroke="#007BFF" stroke-width="1.5"/>
      <path d="M1528 262.74L-49.0391 262.74" stroke="#007BFF" stroke-width="1.5"/>
      <path d="M1528 194.74L-49.0391 194.74" stroke="#007BFF" stroke-width="1.5"/>
      <path d="M1528 126.74L-49.0391 126.74" stroke="#007BFF" stroke-width="1.5"/>
      <path d="M1528 58.74L-49.0391 58.74" stroke="#007BFF" stroke-width="1.5"/>
    </g>
    <circle cx="1190" cy="534" r="20" fill="#007BFF" fill-opacity="0.2"/>
    <circle cx="1054" cy="330" r="10" fill="#007BFF" fill-opacity="0.2"/>
    <circle cx="850" cy="670" r="15" fill="#007BFF" fill-opacity="0.2"/>
    <circle cx="646" cy="194" r="25" fill="#007BFF" fill-opacity="0.2"/>
    <circle cx="374" cy="466" r="18" fill="#007BFF" fill-opacity="0.2"/>
    <circle cx="170" cy="738" r="12" fill="#007BFF" fill-opacity="0.2"/>
  </g>
  <defs>
    <linearGradient id="paint0_linear" x1="720" y1="0" x2="720" y2="900" gradientUnits="userSpaceOnUse">
      <stop stop-color="#E6F0FF"/>
      <stop offset="1" stop-color="#F8F9FA"/>
    </linearGradient>
    <radialGradient id="paint1_radial" cx="0" cy="0" r="1" gradientUnits="userSpaceOnUse" gradientTransform="translate(720 450) rotate(90) scale(450 720)">
      <stop stop-color="#007BFF" stop-opacity="0.1"/>
      <stop offset="1" stop-color="#007BFF" stop-opacity="0"/>
    </radialGradient>
  </defs>
</svg>
